<svg id="visual" viewBox="0 0 1000 600" width="1000" height="600" xmlns="http://www.w3.org/2000/svg" xmlns:xlink="http://www.w3.org/1999/xlink" version="1.1"><rect x="0" y="0" width="1000" height="600" fill="#001220"></rect><defs><linearGradient id="grad1_0" x1="40%" y1="0%" x2="100%" y2="100%"><stop offset="16.666666666666664%" stop-color="#fbae3c" stop-opacity="1"></stop><stop offset="83.33333333333334%" stop-color="#fbae3c" stop-opacity="1"></stop></linearGradient></defs><defs><linearGradient id="grad1_1" x1="40%" y1="0%" x2="100%" y2="100%"><stop offset="16.666666666666664%" stop-color="#fbae3c" stop-opacity="1"></stop><stop offset="83.33333333333334%" stop-color="#96446e" stop-opacity="1"></stop></linearGradient></defs><defs><linearGradient id="grad1_2" x1="40%" y1="0%" x2="100%" y2="100%"><stop offset="16.666666666666664%" stop-color="#001220" stop-opacity="1"></stop><stop offset="83.33333333333334%" stop-color="#96446e" stop-opacity="1"></stop></linearGradient></defs><defs><linearGradient id="grad2_0" x1="0%" y1="0%" x2="60%" y2="100%"><stop offset="16.666666666666664%" stop-color="#fbae3c" stop-opacity="1"></stop><stop offset="83.33333333333334%" stop-color="#fbae3c" stop-opacity="1"></stop></linearGradient></defs><defs><linearGradient id="grad2_1" x1="0%" y1="0%" x2="60%" y2="100%"><stop offset="16.666666666666664%" stop-color="#96446e" stop-opacity="1"></stop><stop offset="83.33333333333334%" stop-color="#fbae3c" stop-opacity="1"></stop></linearGradient></defs><defs><linearGradient id="grad2_2" x1="0%" y1="0%" x2="60%" y2="100%"><stop offset="16.666666666666664%" stop-color="#96446e" stop-opacity="1"></stop><stop offset="83.33333333333334%" stop-color="#001220" stop-opacity="1"></stop></linearGradient></defs><g transform="translate(1000, 0)"><path d="M0 495.6C-51.5 489.7 -103.1 483.7 -150.8 464.1C-198.5 444.5 -242.5 411.4 -269.8 371.3C-297.1 331.3 -307.6 284.4 -343.8 249.8C-380 215.2 -441.8 192.8 -471.4 153.2C-500.9 113.6 -498.3 56.8 -495.6 0L0 0Z" fill="#3d3056"></path><path d="M0 330.4C-34.4 326.4 -68.7 322.5 -100.5 309.4C-132.4 296.4 -161.7 274.2 -179.9 247.6C-198 220.9 -205.1 189.6 -229.2 166.5C-253.3 143.4 -294.5 128.5 -314.2 102.1C-334 75.7 -332.2 37.9 -330.4 0L0 0Z" fill="#e1685e"></path><path d="M0 165.2C-17.2 163.2 -34.4 161.2 -50.3 154.7C-66.2 148.2 -80.8 137.1 -89.9 123.8C-99 110.4 -102.5 94.8 -114.6 83.3C-126.7 71.7 -147.3 64.3 -157.1 51.1C-167 37.9 -166.1 18.9 -165.2 0L0 0Z" fill="#fbae3c"></path></g><g transform="translate(0, 600)"><path d="M0 -495.6C48.6 -479.7 97.3 -463.7 144.3 -444.1C191.4 -424.6 236.9 -401.5 266.9 -367.3C296.8 -333 311.3 -287.6 347.9 -252.7C384.4 -217.9 443.1 -193.5 471.4 -153.2C499.7 -112.8 497.7 -56.4 495.6 0L0 0Z" fill="#3d3056"></path><path d="M0 -330.4C32.4 -319.8 64.8 -309.1 96.2 -296.1C127.6 -283.1 157.9 -267.7 177.9 -244.9C197.9 -222 207.5 -191.8 231.9 -168.5C256.3 -145.2 295.4 -129 314.2 -102.1C333.1 -75.2 331.8 -37.6 330.4 0L0 0Z" fill="#e1685e"></path><path d="M0 -165.2C16.2 -159.9 32.4 -154.6 48.1 -148C63.8 -141.5 79 -133.8 89 -122.4C98.9 -111 103.8 -95.9 116 -84.2C128.1 -72.6 147.7 -64.5 157.1 -51.1C166.6 -37.6 165.9 -18.8 165.2 0L0 0Z" fill="#fbae3c"></path></g></svg>