<svg id="visual" viewBox="0 0 900 600" width="900" height="600" xmlns="http://www.w3.org/2000/svg" xmlns:xlink="http://www.w3.org/1999/xlink" version="1.1"><rect x="0" y="0" width="900" height="600" fill="#001220"></rect><defs><linearGradient id="grad1_0" x1="33.3%" y1="100%" x2="100%" y2="0%"><stop offset="20%" stop-color="#fbae3c" stop-opacity="1"></stop><stop offset="80%" stop-color="#fbae3c" stop-opacity="1"></stop></linearGradient></defs><defs><linearGradient id="grad1_1" x1="33.3%" y1="100%" x2="100%" y2="0%"><stop offset="20%" stop-color="#fbae3c" stop-opacity="1"></stop><stop offset="80%" stop-color="#96446e" stop-opacity="1"></stop></linearGradient></defs><defs><linearGradient id="grad1_2" x1="33.3%" y1="100%" x2="100%" y2="0%"><stop offset="20%" stop-color="#001220" stop-opacity="1"></stop><stop offset="80%" stop-color="#96446e" stop-opacity="1"></stop></linearGradient></defs><defs><linearGradient id="grad2_0" x1="0%" y1="100%" x2="66.7%" y2="0%"><stop offset="20%" stop-color="#fbae3c" stop-opacity="1"></stop><stop offset="80%" stop-color="#fbae3c" stop-opacity="1"></stop></linearGradient></defs><defs><linearGradient id="grad2_1" x1="0%" y1="100%" x2="66.7%" y2="0%"><stop offset="20%" stop-color="#96446e" stop-opacity="1"></stop><stop offset="80%" stop-color="#fbae3c" stop-opacity="1"></stop></linearGradient></defs><defs><linearGradient id="grad2_2" x1="0%" y1="100%" x2="66.7%" y2="0%"><stop offset="20%" stop-color="#96446e" stop-opacity="1"></stop><stop offset="80%" stop-color="#001220" stop-opacity="1"></stop></linearGradient></defs><g transform="translate(900, 600)"><path d="M-351.5 0C-328 -30.6 -304.4 -61.1 -289.1 -93.9C-273.9 -126.7 -266.9 -161.8 -242.7 -176.3C-218.5 -190.9 -177 -184.9 -155.2 -213.6C-133.4 -242.3 -131.2 -305.6 -108.6 -334.3C-86 -363.1 -43 -357.3 0 -351.5L0 0Z" fill="#3d3056"></path><path d="M-234.4 0C-218.6 -20.4 -202.9 -40.8 -192.7 -62.6C-182.6 -84.5 -177.9 -107.9 -161.8 -117.6C-145.7 -127.3 -118 -123.3 -103.5 -142.4C-88.9 -161.5 -87.5 -203.7 -72.4 -222.9C-57.4 -242.1 -28.7 -238.2 0 -234.4L0 0Z" fill="#e1685e"></path><path d="M-117.2 0C-109.3 -10.2 -101.5 -20.4 -96.4 -31.3C-91.3 -42.2 -89 -53.9 -80.9 -58.8C-72.8 -63.6 -59 -61.6 -51.7 -71.2C-44.5 -80.8 -43.7 -101.9 -36.2 -111.4C-28.7 -121 -14.3 -119.1 0 -117.2L0 0Z" fill="#fbae3c"></path></g><g transform="translate(0, 0)"><path d="M351.5 0C352.6 40 353.6 80.1 329.1 106.9C304.5 133.8 254.5 147.4 222.5 161.6C190.5 175.8 176.5 190.6 162.8 224.1C149.1 257.6 135.7 310 108.6 334.3C81.5 358.7 40.8 355.1 0 351.5L0 0Z" fill="#3d3056"></path><path d="M234.4 0C235 26.7 235.7 53.4 219.4 71.3C203 89.2 169.7 98.3 148.3 107.8C127 117.2 117.7 127 108.5 149.4C99.4 171.8 90.5 206.6 72.4 222.9C54.4 239.1 27.2 236.8 0 234.4L0 0Z" fill="#e1685e"></path><path d="M117.2 0C117.5 13.3 117.9 26.7 109.7 35.6C101.5 44.6 84.8 49.1 74.2 53.9C63.5 58.6 58.8 63.5 54.3 74.7C49.7 85.9 45.2 103.3 36.2 111.4C27.2 119.6 13.6 118.4 0 117.2L0 0Z" fill="#fbae3c"></path></g></svg>