<svg id="visual" viewBox="0 0 900 600" width="900" height="600" xmlns="http://www.w3.org/2000/svg" xmlns:xlink="http://www.w3.org/1999/xlink" version="1.1"><rect width="900" height="600" fill="#001829"></rect><g><g transform="translate(732 196)"><path d="M0 -147L127.3 -73.5L127.3 73.5L0 147L-127.3 73.5L-127.3 -73.5Z" fill="none" stroke="#297EA6" stroke-width="4"></path></g><g transform="translate(138 60)"><path d="M0 -85L73.6 -42.5L73.6 42.5L0 85L-73.6 42.5L-73.6 -42.5Z" fill="none" stroke="#297EA6" stroke-width="4"></path></g><g transform="translate(401 333)"><path d="M0 -110L95.3 -55L95.3 55L0 110L-95.3 55L-95.3 -55Z" fill="none" stroke="#297EA6" stroke-width="4"></path></g><g transform="translate(632 543)"><path d="M0 -131L113.4 -65.5L113.4 65.5L0 131L-113.4 65.5L-113.4 -65.5Z" stroke="#297EA6" fill="none" stroke-width="4"></path></g><g transform="translate(80 415)"><path d="M0 -117L101.3 -58.5L101.3 58.5L0 117L-101.3 58.5L-101.3 -58.5Z" stroke="#297EA6" fill="none" stroke-width="4"></path></g><g transform="translate(447 8)"><path d="M0 -112L97 -56L97 56L0 112L-97 56L-97 -56Z" stroke="#297EA6" fill="none" stroke-width="4"></path></g></g></svg>